<svg width="35" height="35" viewBox="0 0 35 35" fill="none" xmlns="http://www.w3.org/2000/svg">
<g clip-path="url(#clip0_8_528)">
<path d="M18.448 22.8521C18.6521 22.3271 18.5209 21.7292 18.1125 21.3209L15.0646 18.3167L15.1084 18.2729C17.6459 15.4438 19.4542 12.1917 20.5188 8.75002H23.348C24.1355 8.75002 24.7917 8.09377 24.7917 7.30627V7.2771C24.7917 6.4896 24.1355 5.83335 23.348 5.83335H14.5834V4.37502C14.5834 3.57294 13.9271 2.91669 13.125 2.91669C12.323 2.91669 11.6667 3.57294 11.6667 4.37502V5.83335H2.90212C2.11462 5.83335 1.45837 6.4896 1.45837 7.2771C1.45837 8.07919 2.11462 8.72085 2.90212 8.72085H17.748C16.7709 11.55 15.225 14.2188 13.125 16.5521C11.9438 15.2542 10.9521 13.8396 10.1209 12.3521C9.88754 11.9292 9.46462 11.6667 8.98337 11.6667C7.97712 11.6667 7.33546 12.7604 7.83129 13.6354C8.75004 15.2834 9.87296 16.8584 11.1855 18.3167L4.81254 24.6021C4.22921 25.1709 4.22921 26.1042 4.81254 26.6729C5.38129 27.2417 6.30004 27.2417 6.88337 26.6729L13.125 20.4167L16.0709 23.3625C16.8146 24.1063 18.0834 23.8292 18.448 22.8521ZM25.5209 14.5834C24.6459 14.5834 23.8584 15.1229 23.5521 15.9542L18.2 30.2459C17.85 31.1354 18.5209 32.0834 19.4688 32.0834C20.0375 32.0834 20.548 31.7334 20.7521 31.1938L22.05 27.7084H28.9771L30.2896 31.1938C30.4938 31.7188 31.0042 32.0834 31.573 32.0834C32.5209 32.0834 33.1917 31.1354 32.8563 30.2459L27.5042 15.9542C27.1834 15.1229 26.3959 14.5834 25.5209 14.5834ZM23.1584 24.7917L25.5209 18.4771L27.8834 24.7917H23.1584Z" fill="url(#paint0_linear_8_528)"/>
</g>
<defs>
<linearGradient id="paint0_linear_8_528" x1="17.2011" y1="2.91669" x2="17.2011" y2="32.0834" gradientUnits="userSpaceOnUse">
<stop stop-color="#4C0DAA"/>
<stop offset="1" stop-color="#9858FF"/>
</linearGradient>
<clipPath id="clip0_8_528">
<rect width="35" height="35" fill="white"/>
</clipPath>
</defs>
</svg>
